name C:\Users\antoi\Documents\MyRepositories\upper-imu-dc\Results\main_tracking\Case_85\kinematics.mot
datacolumns 43
datarows 6
range 3.00000000 3.10000000
endheader 
time	clav_prot	clav_elev	scapula_abduction	scapula_elevation	scapula_upward_rot	scapula_winging	plane_elv	shoulder_elv	axial_rot	TrapeziusScapula_M/activation	TrapeziusScapula_S/activation	TrapeziusScapula_I/activation	TrapeziusClavicle_S/activation	SerratusAnterior_I/activation	SerratusAnterior_M/activation	SerratusAnterior_S/activation	Rhomboideus_S/activation	Rhomboideus_I/activation	LevatorScapulae/activation	Coracobrachialis/activation	DeltoideusClavicle_A/activation	DeltoideusScapula_P/activation	DeltoideusScapula_M/activation	LatissimusDorsi_S/activation	LatissimusDorsi_M/activation	LatissimusDorsi_I/activation	PectoralisMajorClavicle_S/activation	PectoralisMajorThorax_I/activation	PectoralisMajorThorax_M/activation	TeresMajor/activation	Infraspinatus_I/activation	Infraspinatus_S/activation	PectoralisMinor/activation	TeresMinor/activation	Subscapularis_S/activation	Subscapularis_M/activation	Subscapularis_I/activation	Supraspinatus_P/activation	Supraspinatus_A/activation	TRIlong/activation	BIC_long/activation	BIC_brevis/activation	
          3.00000000	        -23.67068019	         -3.64179703	        -16.74202328	         -2.52670725	          9.09271871	          6.22345796	        -18.06149527	         13.87218689	         45.21081468	          0.01000000	          0.01000000	          0.01000000	          0.02589423	          0.01000000	          0.04042854	          0.01000000	          0.01068657	          0.01333333	          0.04175039	          0.01000003	          0.01000000	          0.01000000	          0.01000000	          0.01000000	          0.01000000	          0.01000000	          0.01184246	          0.01000000	          0.01531065	          0.01000000	          0.01091775	          0.01000000	          0.01000000	          0.01000001	          0.01000000	          0.01000000	          0.01000000	          0.01000000	          0.01000000	          0.01007536	          0.01000000	          0.01000010	
          3.02000000	        -23.55592449	         -4.04409857	        -16.49709664	         -2.80173623	          8.98811489	          6.36242555	        -18.55870144	         14.20316906	         44.95975561	          0.01000000	          0.02047553	          0.01000000	          0.02314226	          0.02601034	          0.05736885	          0.01000000	          0.01000000	          0.01000000	          0.03131280	          0.01000000	          0.02248465	          0.01000000	          0.03565051	          0.01000000	          0.01000000	          0.01000000	          0.01810875	          0.01000000	          0.01406515	          0.01000000	          0.01479808	          0.01370973	          0.01000000	          0.01000000	          0.01000000	          0.01000000	          0.01000000	          0.01000001	          0.01538395	          0.01000000	          0.02434144	          0.01000000	
          3.04000000	        -23.46347321	         -4.44885270	        -16.28650088	         -3.08105785	          8.88580622	          6.50577835	        -19.05875949	         14.54741204	         44.68808694	          0.01000000	          0.02260355	          0.01000000	          0.02595068	          0.02793272	          0.05893570	          0.01000000	          0.01000000	          0.01000000	          0.02581861	          0.01000000	          0.02135896	          0.01000000	          0.04098656	          0.01000000	          0.01000000	          0.01000015	          0.01919580	          0.01000000	          0.01473141	          0.01000000	          0.01467886	          0.01615268	          0.01000000	          0.01000000	          0.01000000	          0.01000000	          0.01000000	          0.01000001	          0.01607549	          0.01000000	          0.02351943	          0.01000000	
          3.06000000	        -23.38993939	         -4.85000300	        -16.09654495	         -3.36729251	          8.81277444	          6.64521508	        -19.56225774	         14.92059335	         44.37016900	          0.01000000	          0.02404071	          0.01000000	          0.02488611	          0.03071150	          0.05867792	          0.01000000	          0.01000000	          0.01000000	          0.02406198	          0.01000000	          0.02259145	          0.01000000	          0.04312821	          0.01000000	          0.01000000	          0.01000000	          0.01880471	          0.01000000	          0.01378105	          0.01000000	          0.01528682	          0.01646460	          0.01000000	          0.01000000	          0.01000000	          0.01000000	          0.01000000	          0.01000001	          0.01631934	          0.01000000	          0.02597041	          0.01000000	
          3.08000000	        -23.33280403	         -5.24072351	        -15.92052740	         -3.65701197	          8.77645635	          6.77700927	        -20.06393728	         15.32717406	         43.99381665	          0.01000000	          0.02571625	          0.01000000	          0.02435918	          0.03326136	          0.05857437	          0.01000000	          0.01000000	          0.01000000	          0.02207904	          0.01000000	          0.02338763	          0.01000000	          0.04554117	          0.01000000	          0.01000000	          0.01000000	          0.01894958	          0.01000000	          0.01343728	          0.01000000	          0.01579069	          0.01706971	          0.01000000	          0.01000000	          0.01000000	          0.01000000	          0.01000000	          0.01000002	          0.01705909	          0.01000000	          0.02692754	          0.01000000	
          3.10000000	        -23.28875905	         -5.61438661	        -15.75174201	         -3.94601578	          8.78129039	          6.89788434	        -20.55620360	         15.77077784	         43.55057587	          0.01000000	          0.02736737	          0.01000000	          0.02392185	          0.03541771	          0.05855079	          0.01000000	          0.01000000	          0.01000000	          0.02028553	          0.01000000	          0.02426462	          0.01000000	          0.04759224	          0.01000000	          0.01000000	          0.01000000	          0.01904508	          0.01000000	          0.01297964	          0.01000000	          0.01615921	          0.01786885	          0.01000000	          0.01000000	          0.01000000	          0.01000000	          0.01000000	          0.01000002	          0.01762516	          0.01000000	          0.02799546	          0.01000000	
